# xmcd
#
# Track frame offsets:
#	150
#	18288
#	34232
#	50573
#	67852
#	89379
#	111159
#	126133
#	145309
#	162171
#	174893
#	189919
#	208917
#	230846
#
# Disc length: 3338 seconds
#
# Revision: 0
# Processed by: cddbd v1.5.2PL0 Copyright (c) Steve Scherf et al.
# Submitted via: dBpowerAMP V4.0
#
DISCID=be0d080e
DTITLE=Simon NWAMBEBEN - BITIBAK 1
DYEAR=1900
DGENRE=National Folk
TTITLE0=Ikoum
TTITLE1=Mdeh be nkeh
TTITLE2=Aiwou
TTITLE3=Awa
TTITLE4=Daniel
TTITLE5=Douhnia
TTITLE6=Hiswoa
TTITLE7=L'autre moi
TTITLE8=Man a mbwei
TTITLE9=Mkourha wo
TTITLE10=L'espoir du desespoir
TTITLE11=Nadah'na
TTITLE12=Bhom
TTITLE13=Mama
EXTD=
EXTT0=
EXTT1=
EXTT2=
EXTT3=
EXTT4=
EXTT5=
EXTT6=
EXTT7=
EXTT8=
EXTT9=
EXTT10=
EXTT11=
EXTT12=
EXTT13=
PLAYORDER=
